<svg xmlns="http://www.w3.org/2000/svg" viewBox="0 0 1200 800" role="img" aria-labelledby="title desc">
  <title id="title">Frameset image placeholder</title>
  <desc id="desc">A project-owned technical illustration of a bicycle frame and fork, shown when a verified frameset photograph is unavailable.</desc>
  <defs>
    <linearGradient id="background" x1="80" y1="30" x2="1120" y2="770" gradientUnits="userSpaceOnUse">
      <stop stop-color="#f5f7f3"/>
      <stop offset="1" stop-color="#e6ede7"/>
    </linearGradient>
    <linearGradient id="frame" x1="320" y1="545" x2="895" y2="285" gradientUnits="userSpaceOnUse">
      <stop stop-color="#274d39"/>
      <stop offset="1" stop-color="#4f775f"/>
    </linearGradient>
  </defs>

  <rect width="1200" height="800" fill="url(#background)"/>
  <circle cx="1015" cy="105" r="225" fill="#dbe8dd" opacity=".72"/>
  <path d="M70 656c218-43 402-55 553-37 181 21 345 13 507-31" fill="none" stroke="#cad7cd" stroke-width="5" opacity=".72"/>
  <ellipse cx="610" cy="683" rx="420" ry="22" fill="#17352b" opacity=".08"/>

  <g fill="none" stroke="#75877c" stroke-width="7" stroke-dasharray="12 17" opacity=".24">
    <circle cx="320" cy="525" r="178"/>
    <circle cx="895" cy="525" r="178"/>
  </g>

  <g fill="none" stroke="url(#frame)" stroke-width="38" stroke-linecap="round" stroke-linejoin="round">
    <path d="m320 525 205-238 78 238H320Z"/>
    <path d="m525 287 230 38 25 116-177 84-78-238Z"/>
    <path d="m776 417 119 108"/>
  </g>

  <g fill="none" stroke="#26362d" stroke-linecap="round" stroke-linejoin="round">
    <path d="m755 325 25 116" stroke-width="27"/>
    <path d="m525 287-24-86M449 199h105" stroke-width="23"/>
    <circle cx="603" cy="525" r="37" stroke-width="16"/>
    <path d="m603 525-52 69m52-69 58-70" stroke-width="12"/>
    <path d="M319 525h20M885 525h20" stroke-width="16"/>
  </g>
</svg>
